# xmcd
#
# Track frame offsets:
#	150
#	1187
#	15590
#	29224
#	45457
#	61459
#	81859
#	97540
#	112730
#	128942
#	147561
#	164921
#	180215
#	196063
#	211350
#	229349
#	246187
#	261051
#	276206
#	291072
#
# Disc length: 4111 seconds
#
# Revision: 1
# Processed by: cddbd v1.5.2PL0 Copyright (c) Steve Scherf et al.
# Submitted via: audiograbber 1.83.01
#
DISCID=14100d14
DTITLE=Various Artist - Mitten ins Herz 9
DYEAR=2009
DGENRE=Schlager
TTITLE0=Intro - Mitten ins Herz Folge 9
TTITLE1=Michael Larsen - Immer richtung Süden
TTITLE2=Hansi Süssenbach - Immer wieder Du und ich
TTITLE3=Mike Bauhaus - Diesmal will ich Liebe
TTITLE4=Marco Kloss - Doch es tut weh
TTITLE5=Joyo - Lebenslänglich
TTITLE6=Nico Gemba - Männer weinen nicht
TTITLE7=Oliver Frank - Ciao, bella Italia (Remake 2004)
TTITLE8=Jeannine - Ich setzt die Segel (Dance Version)
TTITLE9=C.C. Tennissen - Mississippi... Du hörst mein Lied (DJ Mix)
TTITLE10=Maurice Delassio - Jetzt oder nie
TTITLE11=Sandy Christen - Schau mich doch noch einmal an
TTITLE12=Phillip Engel - Angel
TTITLE13=Andreas Köhler - Dich allein
TTITLE14=Susan Schubert - Mit Dir - dolce vita
TTITLE15=Guido Hoffmann - Als ob der Himmel brannte
TTITLE16=Alexander Moren - Sündenherz
TTITLE17=Michael Karp - Ciao bella Ciao
TTITLE18=Martin Mendez - Wenn der Discofox beginnt
TTITLE19=Thomas Strack - Nimm mein Herz (... wenn Du gehst) Mitten ins Herz Mix
TTITLE19=)
EXTD=
EXTT0=
EXTT1=
EXTT2=
EXTT3=
EXTT4=
EXTT5=
EXTT6=
EXTT7=
EXTT8=
EXTT9=
EXTT10=
EXTT11=
EXTT12=
EXTT13=
EXTT14=
EXTT15=
EXTT16=
EXTT17=
EXTT18=
EXTT19=
PLAYORDER=
